Coordinates
version=1
nRows=24
nColumns=38
inDegrees=no

Units are S.I. units (second, meters, Newtons, ...)
If the header above contains a line with 'inDegrees', this indicates whether rotational values are in degrees (yes) or radians (no).

endheader
time	pelvis_tilt	pelvis_list	pelvis_rotation	pelvis_tx	pelvis_ty	pelvis_tz	hip_flexion_r	hip_adduction_r	hip_rotation_r	knee_angle_r	ankle_angle_r	subtalar_angle_r	mtp_angle_r	hip_flexion_l	hip_adduction_l	hip_rotation_l	knee_angle_l	ankle_angle_l	subtalar_angle_l	mtp_angle_l	lumbar_extension	lumbar_bending	lumbar_rotation	arm_flex_r	arm_add_r	arm_rot_r	elbow_flex_r	pro_sup_r	wrist_flex_r	wrist_dev_r	arm_flex_l	arm_add_l	arm_rot_l	elbow_flex_l	pro_sup_l	wrist_flex_l	wrist_dev_l
1.71	3.12745	1.40243	1.59712	0.752081	-0.311993	1.00013	0.227656	0.0247733	-0.179146	0.69191	-0.0672258	0	0	0.519128	-0.00465698	-0.24402	0.223957	-0.245272	0	0	0.138231	0.152298	0.374855	-0.493482	-0.580761	-0.31968	1.69295	0.544714	0	0	0.384894	-0.312816	0.59363	1.01753	0.749531	0	0
1.72	3.12697	1.40066	1.59388	0.752351	-0.322058	0.998505	0.220612	0.0264396	-0.16938	0.694966	-0.0644505	0	0	0.518783	-0.00259415	-0.253937	0.218466	-0.249448	0	0	0.142568	0.15136	0.376786	-0.491482	-0.57999	-0.316525	1.69036	0.546178	0	0	0.384937	-0.31353	0.59357	1.01615	0.750483	0	0
1.73	3.12645	1.40109	1.59085	0.7526	-0.33231	0.997	0.211405	0.0275388	-0.160881	0.698892	-0.0619456	0	0	0.516841	-0.00149744	-0.262572	0.222327	-0.25069	0	0	0.144421	0.150231	0.378457	-0.488847	-0.578826	-0.313859	1.68788	0.547629	0	0	0.385277	-0.314668	0.593809	1.0157	0.749007	0	0
1.74	3.12561	1.40484	1.58784	0.752775	-0.342806	0.995707	0.198799	0.0282577	-0.153239	0.703493	-0.0600287	0	0	0.511647	-0.00186535	-0.270356	0.235419	-0.249562	0	0	0.142522	0.148757	0.380659	-0.486132	-0.577668	-0.311499	1.68556	0.549197	0	0	0.386487	-0.316282	0.594894	1.01567	0.749882	0	0
1.75	3.12879	1.41139	1.58047	0.752919	-0.353537	0.99453	0.183673	0.0289433	-0.147548	0.709379	-0.0600061	0	0	0.503357	-0.00389972	-0.27712	0.255335	-0.246727	0	0	0.13718	0.147864	0.383565	-0.484562	-0.577077	-0.30967	1.68455	0.55071	0	0	0.388083	-0.317797	0.59595	1.01637	0.750769	0	0
1.76	3.13807	1.41996	1.56641	0.753023	-0.364507	0.993396	0.167074	0.0300583	-0.142509	0.716865	-0.0621017	0	0	0.492132	-0.00739368	-0.283895	0.27829	-0.243517	0	0	0.12943	0.147873	0.387368	-0.48392	-0.57643	-0.309073	1.68464	0.55193	0	0	0.389997	-0.319389	0.597332	1.01775	0.751966	0	0
1.77	-3.13463	1.42908	1.55096	0.753107	-0.375601	0.992328	0.15082	0.0307292	-0.137471	0.726126	-0.0660035	0	0	0.479047	-0.0109208	-0.288359	0.298619	-0.243103	0	0	0.121014	0.147693	0.391695	-0.483623	-0.575286	-0.309259	1.68489	0.552417	0	0	0.392106	-0.320706	0.598747	1.01939	0.752288	0	0
1.78	3.14149	1.43712	1.55368	0.753253	-0.386643	0.991504	0.137418	0.0283162	-0.131987	0.738069	-0.0709861	0	0	0.46686	-0.0115263	-0.292266	0.309271	-0.252123	0	0	0.113892	0.144002	0.395253	-0.481699	-0.573176	-0.308236	1.68302	0.553335	0	0	0.394076	-0.322088	0.599627	1.02024	0.752421	0	0
1.79	3.10351	1.44334	1.58907	0.753465	-0.397384	0.991071	0.128703	0.0218797	-0.125401	0.754145	-0.0782082	0	0	0.459959	-0.00973324	-0.298013	0.318339	-0.27155	0	0	0.1085	0.134792	0.396717	-0.476915	-0.569727	-0.304747	1.67781	0.55786	0	0	0.396242	-0.32382	0.599627	1.01992	0.754656	0	0
1.8	3.04501	1.44732	1.64653	0.753691	-0.407905	0.990854	0.125028	0.0137587	-0.115825	0.775243	-0.0874544	0	0	0.457374	-0.00818959	-0.30227	0.334643	-0.290986	0	0	0.104876	0.122298	0.396602	-0.471726	-0.564614	-0.300049	1.67181	0.563265	0	0	0.39837	-0.326103	0.599215	1.01975	0.7586	0	0
1.81	2.9789	1.45093	1.71272	0.754208	-0.418448	0.990885	0.123639	0.0050792	-0.104494	0.800739	-0.100699	0	0	0.454263	-0.00680267	-0.304943	0.355886	-0.305256	0	0	0.100953	0.109509	0.395643	-0.467282	-0.558875	-0.297457	1.66642	0.567018	0	0	0.400166	-0.327967	0.598428	1.0201	0.762644	0	0
1.82	2.9107	1.45607	1.78232	0.75516	-0.429035	0.991367	0.122218	-0.00368051	-0.0928956	0.829173	-0.118881	0	0	0.449619	-0.00554106	-0.306034	0.383072	-0.309985	0	0	0.0945936	0.0981901	0.393855	-0.464352	-0.554374	-0.29656	1.66235	0.570682	0	0	0.402519	-0.328492	0.597917	1.0192	0.767956	0	0
1.83	2.84505	1.46338	1.85044	0.756573	-0.439593	0.992361	0.12034	-0.0116713	-0.0816547	0.859363	-0.145611	0	0	0.442498	-0.00453181	-0.301259	0.413782	-0.306024	0	0	0.0849164	0.0898349	0.391475	-0.463391	-0.552046	-0.29734	1.66012	0.574702	0	0	0.404936	-0.327111	0.597054	1.01746	0.773576	0	0
1.84	2.78565	1.47142	1.91303	0.75833	-0.450051	0.993734	0.120056	-0.0184323	-0.0703477	0.89079	-0.177689	0	0	0.43296	-0.00285468	-0.289586	0.441097	-0.298159	0	0	0.0739119	0.0847233	0.388449	-0.464547	-0.551601	-0.298798	1.66	0.576427	0	0	0.406926	-0.324436	0.595912	1.01523	0.77765	0	0
1.85	2.72777	1.48061	1.97318	0.760096	-0.460348	0.995461	0.120899	-0.0234547	-0.0570651	0.92255	-0.220625	0	0	0.419168	-0.00184375	-0.279181	0.460104	-0.291771	0	0	0.0607346	0.0822383	0.386374	-0.466977	-0.552882	-0.301083	1.66174	0.576314	0	0	0.408417	-0.321205	0.594571	1.01405	0.777783	0	0
1.86	2.66563	1.4903	2.03614	0.761624	-0.470466	0.997417	0.123229	-0.0265593	-0.0411559	0.95455	-0.269408	0	0	0.401787	-0.00216017	-0.276685	0.469803	-0.290219	0	0	0.0462253	0.0811115	0.385711	-0.469954	-0.555257	-0.303679	1.6646	0.574276	0	0	0.410216	-0.318575	0.593941	1.01366	0.778501	0	0
1.87	2.60176	1.49858	2.09976	0.762904	-0.480411	0.9993	0.128899	-0.0281366	-0.0239176	0.987861	-0.314037	0	0	0.383973	-0.00237513	-0.282091	0.473062	-0.290853	0	0	0.0330491	0.0804773	0.38593	-0.473039	-0.557902	-0.306307	1.66818	0.570391	0	0	0.411901	-0.317133	0.593947	1.01455	0.780445	0	0
1.88	2.53334	1.50521	2.16716	0.764058	-0.490164	1.00093	0.138224	-0.0292779	-0.00783357	1.02381	-0.350908	0	0	0.366665	-0.00149112	-0.292716	0.47446	-0.289818	0	0	0.0213038	0.080088	0.386755	-0.477258	-0.561065	-0.308687	1.67377	0.562939	0	0	0.413237	-0.316814	0.595076	1.01766	0.777507	0	0
1.89	2.44661	1.51059	2.25214	0.765137	-0.49975	1.00231	0.150308	-0.0311523	0.00551194	1.06262	-0.377419	0	0	0.349179	9.24969e-05	-0.307098	0.477649	-0.28647	0	0	0.0102293	0.0790853	0.387866	-0.48103	-0.564838	-0.31093	1.67971	0.557278	0	0	0.414797	-0.317757	0.59743	1.02191	0.772943	0	0
1.9	2.32202	1.51556	2.37474	0.766179	-0.509138	1.0036	0.16305	-0.0340228	0.0153243	1.10217	-0.401281	0	0	0.330193	0.00193308	-0.322611	0.483136	-0.280343	0	0	-0.00215472	0.0771811	0.388678	-0.483695	-0.568644	-0.313407	1.68589	0.551594	0	0	0.417251	-0.31999	0.600817	1.02648	0.7702	0	0
1.91	2.16422	1.51887	2.53102	0.767215	-0.518406	1.0049	0.1763	-0.0379969	0.0215598	1.14001	-0.417875	0	0	0.310964	0.00451881	-0.33559	0.489421	-0.273262	0	0	-0.014187	0.0742561	0.388191	-0.484661	-0.571668	-0.315292	1.69109	0.546955	0	0	0.419709	-0.322677	0.603986	1.03061	0.768283	0	0
1.92	1.98453	1.52079	2.71012	0.7683	-0.527569	1.00631	0.188874	-0.0421019	0.0250312	1.17442	-0.424931	0	0	0.291628	0.00752996	-0.345411	0.492503	-0.26738	0	0	-0.0263981	0.0713618	0.38633	-0.484869	-0.5742	-0.317204	1.69605	0.54384	0	0	0.422033	-0.325238	0.607029	1.03472	0.764399	0	0
1.93	1.82993	1.52125	2.86609	0.769465	-0.536642	1.00773	0.20204	-0.045621	0.0251502	1.20509	-0.417121	0	0	0.273724	0.0103232	-0.348515	0.493172	-0.262978	0	0	-0.036665	0.0693276	0.382668	-0.485563	-0.575913	-0.319023	1.70087	0.540442	0	0	0.42449	-0.327275	0.610616	1.03759	0.759731	0	0
1.94	1.69576	1.52168	3.00339	0.770631	-0.545614	1.00924	0.214885	-0.047908	0.0218325	1.23135	-0.394607	0	0	0.256266	0.0119507	-0.346005	0.492336	-0.259706	0	0	-0.0455841	0.0686562	0.377621	-0.485637	-0.576444	-0.321387	1.70422	0.536204	0	0	0.427618	-0.328259	0.614516	1.0381	0.755594	0	0
